<svg width="375" height="374" viewBox="0 0 375 374" fill="none" xmlns="http://www.w3.org/2000/svg">
<path d="M351.205 187.78L361.829 188.272L361.78 189.321L355.607 189.035L361.524 195.181L361.47 196.334L356.996 191.772L350.821 196.066L350.876 194.882L356.398 191.069L354.423 188.98L351.156 188.829L351.205 187.78Z" fill="#CFB270"/>
<path d="M349.761 206.723C349.839 206.169 350.014 205.668 350.289 205.222C350.572 204.787 350.92 204.422 351.335 204.126C351.759 203.842 352.221 203.639 352.723 203.517C353.234 203.397 353.758 203.374 354.292 203.448C354.847 203.526 355.349 203.692 355.798 203.946C356.257 204.202 356.646 204.529 356.964 204.927C357.292 205.326 357.527 205.773 357.67 206.267C357.822 206.773 357.859 207.303 357.781 207.858C357.704 208.413 357.524 208.907 357.241 209.342C356.968 209.779 356.619 210.144 356.194 210.438C355.78 210.734 355.316 210.942 354.805 211.062C354.303 211.184 353.775 211.206 353.22 211.129C352.686 211.054 352.189 210.889 351.73 210.633C351.28 210.378 350.892 210.052 350.564 209.652C350.244 209.265 350.009 208.818 349.857 208.312C349.714 207.817 349.682 207.288 349.761 206.723ZM354.134 204.471C353.56 204.391 353.018 204.442 352.508 204.623C352.006 204.815 351.587 205.105 351.251 205.492C350.924 205.881 350.724 206.333 350.652 206.848C350.581 207.363 350.654 207.853 350.871 208.317C351.089 208.782 351.418 209.176 351.857 209.5C352.307 209.825 352.814 210.027 353.378 210.106C353.953 210.186 354.496 210.131 355.007 209.939C355.518 209.748 355.942 209.459 356.279 209.072C356.616 208.685 356.82 208.234 356.892 207.719C356.964 207.204 356.886 206.713 356.658 206.247C356.429 205.791 356.095 205.401 355.655 205.077C355.226 204.755 354.719 204.553 354.134 204.471Z" fill="#CFB270"/>
<path d="M354.043 223.555C354.166 222.886 354.106 222.26 353.863 221.676C353.618 221.102 353.21 220.646 352.638 220.308L347.886 219.289L348.1 218.291L355.741 219.931L355.54 220.87L353.706 220.476C354.188 220.856 354.548 221.296 354.788 221.798C355.026 222.309 355.112 222.813 355.047 223.311C355.035 223.41 355.023 223.495 355.008 223.563C354.991 223.641 354.973 223.704 354.952 223.751L354.043 223.555Z" fill="#CFB270"/>
<path d="M345.268 229.835C345.425 229.297 345.671 228.827 346.007 228.425C346.35 228.036 346.748 227.725 347.201 227.492C347.661 227.272 348.148 227.138 348.662 227.09C349.186 227.044 349.707 227.097 350.225 227.248C350.763 227.405 351.235 227.642 351.643 227.959C352.06 228.278 352.398 228.658 352.655 229.097C352.922 229.539 353.09 230.016 353.16 230.526C353.237 231.048 353.197 231.578 353.041 232.116C352.884 232.653 352.634 233.117 352.292 233.507C351.958 233.899 351.56 234.21 351.098 234.44C350.645 234.672 350.156 234.811 349.633 234.857C349.119 234.905 348.593 234.85 348.055 234.694C347.537 234.543 347.069 234.307 346.652 233.988C346.244 233.671 345.907 233.292 345.64 232.849C345.38 232.419 345.211 231.943 345.134 231.421C345.064 230.911 345.109 230.382 345.268 229.835ZM349.921 228.238C349.364 228.076 348.82 228.047 348.29 228.153C347.766 228.271 347.309 228.497 346.92 228.832C346.54 229.169 346.278 229.587 346.132 230.087C345.987 230.586 345.988 231.081 346.137 231.572C346.285 232.063 346.554 232.501 346.942 232.885C347.339 233.272 347.812 233.545 348.359 233.704C348.916 233.867 349.461 233.89 349.995 233.775C350.528 233.659 350.99 233.434 351.379 233.1C351.768 232.766 352.035 232.349 352.181 231.849C352.326 231.35 352.32 230.854 352.162 230.36C352.001 229.875 351.726 229.441 351.338 229.057C350.96 228.676 350.487 228.403 349.921 228.238Z" fill="#CFB270"/>
<path d="M352.269 244.662L351.921 245.621L343.29 242.493C342.924 242.36 342.66 242.339 342.5 242.43C342.339 242.521 342.225 242.66 342.157 242.848C342.095 243.017 342.053 243.193 342.029 243.376C342.005 243.559 341.99 243.718 341.983 243.854L341.146 243.742C341.136 243.536 341.155 243.293 341.203 243.013C341.248 242.742 341.305 242.513 341.373 242.325C341.53 241.892 341.783 241.59 342.132 241.419C342.478 241.257 342.872 241.256 343.314 241.417L352.269 244.662Z" fill="#CFB270"/>
<path d="M338.544 249.555C338.768 249.042 339.072 248.607 339.457 248.251C339.85 247.899 340.287 247.637 340.766 247.464C341.254 247.295 341.763 247.217 342.292 247.23C342.817 247.252 343.336 247.374 343.849 247.598C344.518 247.89 345.067 248.309 345.494 248.856C345.917 249.411 346.176 250.031 346.27 250.716C346.373 251.405 346.274 252.093 345.975 252.78C345.667 253.486 345.229 254.026 344.662 254.401C344.091 254.784 343.46 255.006 342.769 255.064C342.087 255.127 341.416 255.014 340.756 254.726C340.683 254.694 340.61 254.662 340.536 254.63C340.472 254.602 340.424 254.576 340.391 254.55L343.066 248.419C342.533 248.24 342.012 248.183 341.505 248.245C341.003 248.321 340.549 248.499 340.143 248.78C339.742 249.074 339.441 249.45 339.241 249.909C339.037 250.376 338.965 250.868 339.023 251.384C339.077 251.91 339.261 252.339 339.574 252.672L339 253.387C338.725 253.093 338.516 252.734 338.373 252.312C338.23 251.889 338.17 251.438 338.194 250.957C338.224 250.49 338.34 250.023 338.544 249.555ZM343.752 248.685L341.443 253.978C341.981 254.169 342.501 254.227 343.003 254.152C343.502 254.085 343.947 253.903 344.338 253.605C344.736 253.32 345.036 252.944 345.24 252.476C345.444 252.009 345.515 251.533 345.454 251.048C345.402 250.567 345.228 250.115 344.933 249.691C344.643 249.281 344.249 248.945 343.752 248.685Z" fill="#CFB270"/>
<path d="M332.956 261.946L341.335 262.887L340.827 263.824L333.581 262.933L338.275 268.532L337.796 269.415L332.434 262.909L332.956 261.946Z" fill="#CFB270"/>
<path d="M329.686 272.6C330.095 272.869 330.369 273.216 330.508 273.643C330.655 274.074 330.673 274.547 330.563 275.061C330.456 275.589 330.224 276.124 329.867 276.667C329.658 276.985 329.416 277.299 329.141 277.608C328.865 277.918 328.59 278.174 328.314 278.375L328.865 278.738C329.417 279.1 329.963 279.225 330.503 279.113C331.043 279.002 331.502 278.658 331.881 278.081C332.112 277.73 332.273 277.339 332.364 276.909C332.459 276.492 332.501 276.017 332.492 275.485L333.308 275.554C333.321 276.173 333.263 276.733 333.136 277.236C333.018 277.745 332.818 278.212 332.538 278.638C332.011 279.44 331.364 279.925 330.597 280.091C329.83 280.257 329.041 280.073 328.23 279.541L325.209 277.555C325.092 277.479 324.988 277.446 324.896 277.458C324.813 277.475 324.732 277.535 324.652 277.638L323.975 277.193C324.027 277.096 324.071 277.011 324.106 276.939C324.142 276.866 324.175 276.816 324.205 276.788C324.351 276.585 324.522 276.47 324.719 276.444C324.916 276.417 325.088 276.447 325.235 276.532L325.72 276.832C325.536 276.293 325.493 275.72 325.592 275.115C325.699 274.515 325.912 273.973 326.23 273.488C326.505 273.07 326.842 272.748 327.243 272.52C327.646 272.307 328.062 272.203 328.489 272.208C328.919 272.228 329.318 272.358 329.686 272.6ZM326.309 276.645C326.366 276.814 326.432 276.959 326.508 277.081C326.584 277.202 326.663 277.291 326.747 277.345L327.699 277.971C327.995 277.759 328.273 277.517 328.535 277.246C328.791 276.984 329.021 276.698 329.224 276.389C329.625 275.779 329.828 275.206 329.832 274.671C329.837 274.135 329.631 273.73 329.213 273.456C328.97 273.296 328.699 273.208 328.4 273.191C328.108 273.179 327.812 273.247 327.511 273.396C327.218 273.551 326.964 273.791 326.75 274.117C326.481 274.527 326.311 274.959 326.239 275.414C326.161 275.878 326.185 276.288 326.309 276.645Z" fill="#CFB270"/>
<path d="M318.797 300.122L321.247 297.224L313.824 290.949L314.502 290.147L321.925 296.422L324.375 293.524L325.085 294.125L319.508 300.723L318.797 300.122Z" fill="#CFB270"/>
<path d="M304.226 301.435C304.625 301.042 305.069 300.752 305.559 300.565C306.055 300.384 306.558 300.303 307.067 300.321C307.583 300.346 308.084 300.463 308.57 300.671C309.05 300.887 309.486 301.194 309.879 301.593C310.391 302.113 310.744 302.706 310.937 303.372C311.123 304.045 311.132 304.717 310.965 305.388C310.804 306.065 310.457 306.667 309.923 307.194C309.375 307.734 308.767 308.073 308.102 308.21C307.429 308.353 306.761 308.324 306.098 308.121C305.442 307.925 304.861 307.571 304.355 307.058C304.299 307.001 304.243 306.944 304.187 306.887C304.138 306.837 304.103 306.795 304.082 306.759L308.847 302.063C308.418 301.699 307.956 301.452 307.462 301.321C306.968 301.204 306.48 301.201 305.999 301.31C305.517 301.434 305.098 301.672 304.742 302.023C304.379 302.381 304.128 302.81 303.99 303.311C303.845 303.819 303.856 304.286 304.022 304.711L303.224 305.162C303.078 304.786 303.017 304.375 303.042 303.93C303.066 303.485 303.179 303.044 303.38 302.607C303.581 302.184 303.863 301.793 304.226 301.435ZM309.384 302.565L305.271 306.619C305.699 306.997 306.161 307.244 306.655 307.361C307.142 307.485 307.623 307.481 308.097 307.35C308.572 307.234 308.991 306.996 309.354 306.638C309.717 306.28 309.961 305.865 310.085 305.392C310.215 304.926 310.222 304.442 310.106 303.939C309.989 303.45 309.748 302.992 309.384 302.565Z" fill="#CFB270"/>
<path d="M298.105 310.725C298.419 311.102 298.58 311.514 298.589 311.962C298.604 312.418 298.484 312.876 298.229 313.335C297.973 313.809 297.595 314.254 297.096 314.67C296.804 314.913 296.481 315.143 296.128 315.359C295.774 315.575 295.436 315.74 295.114 315.852L295.536 316.36C295.958 316.867 296.444 317.145 296.993 317.195C297.543 317.245 298.082 317.05 298.613 316.608C298.935 316.339 299.203 316.012 299.416 315.627C299.627 315.256 299.806 314.814 299.952 314.302L300.712 314.605C300.544 315.201 300.327 315.721 300.059 316.165C299.798 316.617 299.471 317.006 299.079 317.332C298.342 317.947 297.582 318.222 296.799 318.158C296.017 318.093 295.315 317.689 294.695 316.943L292.381 314.166C292.291 314.058 292.201 313.997 292.11 313.981C292.026 313.973 291.93 314.007 291.824 314.083L291.306 313.461C291.384 313.382 291.45 313.314 291.505 313.255C291.561 313.196 291.607 313.158 291.644 313.14C291.842 312.988 292.039 312.927 292.235 312.959C292.431 312.992 292.587 313.07 292.704 313.194L293.08 313.622C293.061 313.052 293.187 312.492 293.457 311.942C293.734 311.399 294.095 310.942 294.541 310.571C294.925 310.251 295.342 310.04 295.791 309.939C296.239 309.852 296.667 309.874 297.074 310.003C297.48 310.146 297.823 310.387 298.105 310.725ZM293.699 313.615C293.704 313.793 293.725 313.951 293.762 314.089C293.799 314.227 293.85 314.335 293.914 314.412L294.643 315.288C294.988 315.17 295.324 315.02 295.653 314.837C295.975 314.66 296.278 314.453 296.562 314.217C297.123 313.749 297.483 313.26 297.644 312.749C297.804 312.239 297.724 311.791 297.404 311.407C297.218 311.184 296.985 311.021 296.703 310.917C296.428 310.821 296.124 310.8 295.793 310.855C295.467 310.918 295.155 311.074 294.855 311.324C294.479 311.637 294.19 312.002 293.989 312.416C293.78 312.838 293.683 313.237 293.699 313.615Z" fill="#CFB270"/>
<path d="M276.238 324.498L277.09 323.938L279.487 327.586C279.987 328.346 280.476 328.827 280.954 329.027C281.433 329.227 281.91 329.17 282.387 328.857C282.88 328.533 283.207 328.067 283.37 327.458C283.523 326.854 283.498 326.224 283.295 325.568L280.675 321.582L281.528 321.022L283.925 324.67C284.43 325.439 284.915 325.922 285.38 326.119C285.85 326.325 286.327 326.268 286.812 325.95C287.297 325.631 287.623 325.172 287.79 324.571C287.958 323.97 287.937 323.338 287.728 322.673L285.101 318.674L285.953 318.114L290.245 324.645L289.467 325.156L288.495 323.677C288.555 324.368 288.462 324.991 288.217 325.547C287.963 326.109 287.573 326.562 287.047 326.908C286.504 327.265 285.963 327.399 285.426 327.309C284.888 327.22 284.417 326.949 284.013 326.497C284.074 327.246 283.989 327.9 283.758 328.459C283.519 329.023 283.131 329.481 282.597 329.832C282.229 330.074 281.876 330.21 281.537 330.241C281.19 330.278 280.859 330.22 280.544 330.068C280.226 329.93 279.918 329.708 279.621 329.401C279.32 329.107 279.03 328.748 278.75 328.321L276.238 324.498Z" fill="#CFB270"/>
<path d="M260.513 333.654L264.874 343.354L263.916 343.784L261.382 338.148L258.573 346.203L257.52 346.677L259.568 340.625L252.948 337.056L254.028 336.57L259.926 339.773L260.896 337.067L259.555 334.085L260.513 333.654Z" fill="#CFB270"/>
<path d="M242.877 340.936C243.407 340.755 243.933 340.687 244.455 340.73C244.971 340.787 245.454 340.933 245.905 341.171C246.349 341.42 246.739 341.742 247.074 342.135C247.412 342.537 247.668 342.994 247.843 343.505C248.023 344.035 248.102 344.558 248.077 345.073C248.055 345.598 247.939 346.092 247.727 346.556C247.518 347.028 247.226 347.44 246.849 347.791C246.465 348.154 246.009 348.426 245.479 348.607C244.949 348.788 244.426 348.85 243.91 348.793C243.397 348.746 242.914 348.6 242.46 348.353C242.009 348.116 241.615 347.796 241.277 347.394C240.942 347.001 240.684 346.54 240.503 346.01C240.329 345.499 240.252 344.98 240.274 344.455C240.299 343.94 240.415 343.446 240.624 342.973C240.826 342.513 241.119 342.101 241.502 341.738C241.879 341.387 242.337 341.12 242.877 340.936ZM246.858 343.825C246.671 343.276 246.381 342.815 245.99 342.441C245.592 342.08 245.144 341.837 244.647 341.711C244.153 341.594 243.66 341.62 243.167 341.788C242.675 341.956 242.271 342.242 241.954 342.646C241.638 343.049 241.434 343.52 241.343 344.059C241.255 344.606 241.304 345.15 241.488 345.689C241.675 346.238 241.969 346.698 242.37 347.068C242.771 347.439 243.221 347.687 243.718 347.813C244.215 347.939 244.71 347.918 245.202 347.75C245.694 347.582 246.097 347.292 246.41 346.878C246.714 346.468 246.912 345.994 247.003 345.456C247.097 344.927 247.049 344.383 246.858 343.825Z" fill="#CFB270"/>
<path d="M229.969 352.283C230.621 352.091 231.153 351.755 231.565 351.275C231.966 350.797 232.189 350.227 232.232 349.564L230.996 344.863L231.983 344.604L233.969 352.162L233.041 352.406L232.564 350.593C232.443 351.194 232.213 351.714 231.874 352.155C231.525 352.598 231.114 352.903 230.64 353.069C230.546 353.104 230.465 353.13 230.398 353.148C230.32 353.168 230.256 353.18 230.205 353.183L229.969 352.283Z" fill="#CFB270"/>
<path d="M220.474 347.263C221.024 347.16 221.555 347.168 222.065 347.286C222.568 347.416 223.025 347.631 223.437 347.93C223.841 348.242 224.18 348.616 224.455 349.053C224.732 349.499 224.92 349.988 225.019 350.519C225.122 351.069 225.124 351.598 225.025 352.105C224.928 352.621 224.742 353.094 224.466 353.522C224.191 353.959 223.843 354.325 223.419 354.617C222.988 354.922 222.497 355.125 221.946 355.228C221.396 355.331 220.869 355.317 220.367 355.187C219.866 355.067 219.409 354.853 218.995 354.543C218.583 354.244 218.239 353.871 217.962 353.424C217.687 352.987 217.499 352.493 217.396 351.943C217.297 351.412 217.295 350.888 217.392 350.372C217.491 349.865 217.677 349.393 217.952 348.955C218.218 348.529 218.567 348.164 218.998 347.859C219.422 347.566 219.914 347.368 220.474 347.263ZM223.999 350.694C223.892 350.124 223.672 349.626 223.338 349.2C222.996 348.786 222.588 348.481 222.114 348.284C221.642 348.098 221.15 348.052 220.639 348.148C220.128 348.243 219.687 348.468 219.315 348.822C218.944 349.177 218.675 349.613 218.507 350.133C218.342 350.662 218.311 351.207 218.416 351.768C218.522 352.338 218.747 352.835 219.091 353.259C219.435 353.683 219.844 353.993 220.318 354.19C220.792 354.386 221.285 354.436 221.796 354.341C222.307 354.245 222.747 354.016 223.117 353.652C223.476 353.289 223.74 352.848 223.907 352.329C224.077 351.819 224.107 351.274 223.999 350.694Z" fill="#CFB270"/>
<path d="M210.419 360.191L209.407 360.317L208.278 351.206C208.23 350.819 208.129 350.575 207.975 350.473C207.822 350.371 207.645 350.333 207.447 350.357C207.268 350.379 207.092 350.421 206.918 350.483C206.745 350.545 206.596 350.604 206.472 350.659L206.192 349.863C206.37 349.76 206.596 349.667 206.867 349.583C207.129 349.5 207.359 349.446 207.558 349.421C208.014 349.365 208.398 349.453 208.709 349.687C209.01 349.922 209.19 350.272 209.248 350.739L210.419 360.191Z" fill="#CFB270"/>
<path d="M199.793 350.163C200.352 350.131 200.878 350.206 201.369 350.387C201.861 350.579 202.292 350.85 202.663 351.199C203.035 351.558 203.334 351.976 203.562 352.454C203.78 352.932 203.905 353.451 203.938 354.01C203.98 354.739 203.854 355.417 203.56 356.045C203.256 356.674 202.82 357.185 202.251 357.578C201.684 357.982 201.026 358.205 200.277 358.249C199.508 358.293 198.829 358.147 198.238 357.811C197.638 357.475 197.155 357.012 196.79 356.422C196.426 355.843 196.223 355.193 196.182 354.474C196.177 354.394 196.173 354.315 196.168 354.235C196.164 354.165 196.166 354.11 196.173 354.069L202.852 353.682C202.77 353.126 202.586 352.636 202.301 352.212C202.007 351.798 201.642 351.473 201.208 351.238C200.764 351.013 200.293 350.916 199.794 350.945C199.284 350.974 198.813 351.132 198.379 351.417C197.934 351.703 197.635 352.061 197.479 352.491L196.582 352.303C196.72 351.924 196.945 351.575 197.257 351.257C197.57 350.938 197.945 350.681 198.385 350.485C198.815 350.3 199.284 350.193 199.793 350.163ZM202.925 354.414L197.159 354.748C197.232 355.315 197.416 355.805 197.71 356.219C197.995 356.633 198.358 356.948 198.802 357.162C199.235 357.388 199.707 357.485 200.216 357.456C200.725 357.426 201.182 357.275 201.587 357.001C201.992 356.737 202.317 356.378 202.561 355.923C202.796 355.478 202.917 354.976 202.925 354.414Z" fill="#CFB270"/>
<path d="M185.459 350.787L188.381 358.696L187.317 358.663L184.858 351.789L181.964 358.498L180.96 358.467L184.364 350.753L185.459 350.787Z" fill="#CFB270"/>
<path d="M174.659 352.659C174.604 353.146 174.418 353.548 174.101 353.865C173.782 354.191 173.369 354.421 172.861 354.556C172.342 354.699 171.759 354.734 171.113 354.661C170.736 354.619 170.346 354.545 169.946 354.44C169.545 354.334 169.192 354.204 168.888 354.049L168.814 354.705C168.74 355.361 168.876 355.904 169.22 356.335C169.564 356.767 170.079 357.021 170.764 357.098C171.182 357.144 171.603 357.111 172.028 356.998C172.443 356.893 172.885 356.717 173.356 356.468L173.663 357.227C173.117 357.518 172.591 357.72 172.085 357.834C171.578 357.959 171.071 357.992 170.565 357.935C169.611 357.828 168.886 357.47 168.391 356.861C167.896 356.252 167.702 355.466 167.81 354.502L168.214 350.909C168.229 350.77 168.211 350.663 168.159 350.586C168.106 350.52 168.016 350.475 167.888 350.45L167.978 349.645C168.089 349.648 168.184 349.648 168.265 349.647C168.345 349.646 168.405 349.653 168.444 349.667C168.691 349.705 168.871 349.806 168.983 349.969C169.096 350.133 169.148 350.3 169.139 350.47L169.09 351.038C169.488 350.63 169.979 350.333 170.563 350.147C171.147 349.971 171.727 349.915 172.303 349.98C172.8 350.036 173.24 350.191 173.624 350.445C173.997 350.708 174.278 351.032 174.466 351.415C174.644 351.807 174.708 352.222 174.659 352.659ZM169.523 351.479C169.398 351.606 169.299 351.731 169.225 351.853C169.151 351.976 169.108 352.086 169.097 352.186L168.97 353.319C169.293 353.486 169.635 353.625 169.995 353.736C170.345 353.845 170.703 353.921 171.071 353.962C171.796 354.044 172.399 353.965 172.878 353.727C173.358 353.489 173.626 353.122 173.681 352.625C173.714 352.337 173.67 352.055 173.55 351.78C173.429 351.515 173.234 351.282 172.964 351.08C172.694 350.889 172.365 350.772 171.977 350.728C171.491 350.673 171.028 350.717 170.589 350.859C170.141 351 169.785 351.207 169.523 351.479Z" fill="#CFB270"/>
<path d="M145.042 355.328L148.733 356.209L150.989 346.754L152.01 346.998L149.754 356.453L153.446 357.334L153.23 358.238L144.826 356.233L145.042 355.328Z" fill="#CFB270"/>
<path d="M137.42 342.921C137.95 343.1 138.409 343.366 138.797 343.718C139.182 344.08 139.481 344.492 139.694 344.954C139.905 345.426 140.026 345.926 140.059 346.455C140.083 346.98 140.005 347.507 139.826 348.038C139.593 348.73 139.223 349.312 138.715 349.785C138.198 350.254 137.602 350.565 136.928 350.718C136.251 350.88 135.557 350.841 134.846 350.602C134.117 350.356 133.541 349.966 133.119 349.434C132.688 348.898 132.413 348.288 132.295 347.605C132.174 346.931 132.228 346.253 132.458 345.57C132.484 345.495 132.51 345.419 132.535 345.343C132.558 345.277 132.58 345.226 132.602 345.191L138.942 347.328C139.073 346.782 139.086 346.258 138.98 345.758C138.862 345.265 138.645 344.828 138.33 344.447C138.002 344.073 137.602 343.806 137.128 343.646C136.645 343.483 136.148 343.453 135.639 343.556C135.12 343.655 134.708 343.875 134.403 344.216L133.641 343.705C133.911 343.406 134.25 343.167 134.659 342.988C135.067 342.809 135.512 342.711 135.993 342.694C136.461 342.682 136.936 342.758 137.42 342.921ZM138.735 348.034L133.263 346.19C133.119 346.743 133.106 347.266 133.224 347.76C133.333 348.25 133.553 348.678 133.884 349.043C134.202 349.414 134.603 349.681 135.086 349.844C135.569 350.007 136.05 350.037 136.528 349.934C137.003 349.841 137.438 349.629 137.834 349.298C138.218 348.973 138.518 348.552 138.735 348.034Z" fill="#CFB270"/>
<path d="M126.339 341.614C126.143 342.063 125.847 342.392 125.45 342.6C125.05 342.818 124.587 342.917 124.062 342.895C123.524 342.878 122.956 342.74 122.361 342.48C122.012 342.328 121.662 342.143 121.311 341.924C120.959 341.705 120.66 341.476 120.415 341.238L120.151 341.843C119.887 342.448 119.856 343.008 120.057 343.521C120.259 344.034 120.676 344.429 121.308 344.705C121.693 344.873 122.106 344.965 122.545 344.983C122.972 345.005 123.447 344.967 123.97 344.868L124.04 345.684C123.432 345.801 122.87 345.839 122.353 345.799C121.832 345.768 121.338 345.651 120.87 345.447C119.99 345.063 119.404 344.507 119.11 343.779C118.817 343.051 118.864 342.242 119.252 341.353L120.697 338.04C120.753 337.911 120.768 337.803 120.741 337.715C120.71 337.636 120.637 337.566 120.522 337.505L120.846 336.762C120.95 336.797 121.041 336.826 121.119 336.849C121.196 336.872 121.251 336.896 121.284 336.921C121.509 337.03 121.651 337.179 121.71 337.369C121.769 337.558 121.77 337.733 121.711 337.893L121.497 338.421C121.997 338.148 122.554 338.01 123.168 338.004C123.777 338.008 124.347 338.126 124.879 338.358C125.337 338.558 125.712 338.836 126.004 339.193C126.283 339.554 126.456 339.946 126.522 340.368C126.576 340.795 126.515 341.21 126.339 341.614ZM121.781 338.97C121.624 339.055 121.492 339.144 121.385 339.24C121.278 339.335 121.205 339.428 121.165 339.52L120.709 340.565C120.968 340.82 121.254 341.054 121.565 341.266C121.867 341.474 122.187 341.652 122.527 341.8C123.196 342.092 123.794 342.195 124.323 342.109C124.851 342.023 125.215 341.751 125.415 341.292C125.531 341.027 125.573 340.745 125.539 340.446C125.502 340.157 125.384 339.877 125.186 339.605C124.984 339.342 124.704 339.133 124.347 338.977C123.898 338.781 123.443 338.686 122.982 338.693C122.512 338.695 122.111 338.787 121.781 338.97Z" fill="#CFB270"/>
<path d="M104.285 328.253L105.167 328.765L102.975 332.539C102.517 333.326 102.306 333.978 102.341 334.496C102.376 335.013 102.64 335.415 103.133 335.702C103.643 335.998 104.207 336.083 104.824 335.955C105.433 335.823 105.985 335.52 106.481 335.044L108.877 330.92L109.759 331.432L107.566 335.206C107.104 336.002 106.889 336.652 106.92 337.155C106.946 337.668 107.21 338.07 107.711 338.361C108.213 338.652 108.77 338.739 109.382 338.62C109.994 338.502 110.551 338.201 111.052 337.717L113.455 333.579L114.337 334.092L110.412 340.849L109.608 340.382L110.497 338.852C109.905 339.213 109.306 339.409 108.699 339.438C108.084 339.462 107.504 339.316 106.959 339C106.397 338.673 106.036 338.249 105.876 337.729C105.716 337.208 105.747 336.665 105.971 336.101C105.328 336.491 104.705 336.708 104.102 336.75C103.49 336.788 102.908 336.646 102.354 336.325C101.974 336.104 101.694 335.849 101.515 335.56C101.327 335.266 101.231 334.944 101.226 334.594C101.207 334.248 101.269 333.873 101.411 333.47C101.539 333.07 101.731 332.65 101.987 332.209L104.285 328.253Z" fill="#CFB270"/>
<path d="M89.0891 318.311L82.3722 326.556L81.5581 325.893L85.4613 321.101L77.0015 322.2L76.106 321.471L82.4344 320.59L82.6579 313.072L83.5766 313.82L83.3556 320.528L86.2097 320.183L88.275 317.647L89.0891 318.311Z" fill="#CFB270"/>
<path d="M74.7461 305.879C75.1463 306.271 75.4446 306.71 75.6408 307.196C75.8229 307.681 75.9096 308.179 75.9011 308.688C75.8783 309.198 75.767 309.69 75.5671 310.166C75.3602 310.649 75.068 311.084 74.6903 311.47C74.2987 311.87 73.8671 312.176 73.3956 312.386C72.9171 312.603 72.4234 312.722 71.9145 312.741C71.3985 312.768 70.8992 312.692 70.4164 312.514C69.9194 312.335 69.4708 312.05 69.0705 311.659C68.6703 311.267 68.3791 310.828 68.197 310.342C68.0079 309.863 67.9212 309.366 67.9368 308.849C67.9454 308.34 68.0531 307.844 68.26 307.361C68.4599 306.885 68.7556 306.447 69.1473 306.046C69.5249 305.661 69.953 305.359 70.4315 305.141C70.903 304.931 71.3967 304.813 71.9126 304.786C72.4144 304.759 72.9138 304.835 73.4107 305.014C73.8935 305.192 74.3386 305.481 74.7461 305.879ZM73.961 310.735C74.3667 310.321 74.648 309.855 74.805 309.337C74.9478 308.819 74.9635 308.31 74.852 307.809C74.7334 307.315 74.4883 306.886 74.1166 306.523C73.745 306.159 73.3075 305.927 72.8044 305.826C72.3012 305.726 71.7888 305.756 71.2673 305.917C70.7388 306.086 70.2752 306.374 69.8766 306.781C69.4709 307.196 69.1932 307.665 69.0433 308.19C68.8935 308.715 68.8743 309.228 68.9859 309.729C69.0974 310.23 69.339 310.662 69.7107 311.026C70.0824 311.389 70.5233 311.618 71.0335 311.711C71.5365 311.798 72.0487 311.76 72.5703 311.599C73.0848 311.445 73.5484 311.157 73.961 310.735Z" fill="#CFB270"/>
<path d="M58.7467 299.406C59.212 299.902 59.7516 300.226 60.3657 300.377C60.9732 300.521 61.5825 300.463 62.1936 300.203L65.8358 296.986L66.5112 297.75L60.6545 302.924L60.0188 302.205L61.424 300.963C60.8331 301.125 60.2645 301.154 59.7184 301.049C59.1656 300.937 58.7088 300.707 58.3477 300.359C58.274 300.29 58.214 300.23 58.1677 300.177C58.1147 300.117 58.0754 300.065 58.0498 300.021L58.7467 299.406Z" fill="#CFB270"/>
<path d="M59.0205 288.751C59.3614 289.195 59.5946 289.671 59.7202 290.18C59.8317 290.687 59.8472 291.192 59.7667 291.695C59.6722 292.196 59.4924 292.668 59.2272 293.111C58.9541 293.56 58.6033 293.949 58.1749 294.277C57.7306 294.618 57.2602 294.859 56.7637 295.001C56.2593 295.148 55.7538 295.196 55.2472 295.143C54.7326 295.097 54.249 294.951 53.7963 294.706C53.3296 294.459 52.9258 294.114 52.5849 293.669C52.244 293.225 52.0178 292.75 51.9062 292.243C51.7868 291.742 51.7712 291.237 51.8597 290.728C51.9402 290.225 52.117 289.749 52.3901 289.3C52.6553 288.857 53.01 288.465 53.4543 288.125C53.8827 287.796 54.3492 287.558 54.8536 287.41C55.3501 287.269 55.8556 287.221 56.3701 287.268C56.8706 287.312 57.3542 287.458 57.821 287.705C58.2737 287.95 58.6735 288.298 59.0205 288.751ZM57.5568 293.447C58.0169 293.094 58.3613 292.672 58.59 292.182C58.8046 291.689 58.8921 291.187 58.8525 290.676C58.805 290.17 58.623 289.711 58.3064 289.299C57.9899 288.886 57.5897 288.594 57.1058 288.424C56.6219 288.253 56.1104 288.21 55.5713 288.296C55.0243 288.388 54.5246 288.608 54.0724 288.955C53.6122 289.308 53.2709 289.734 53.0483 290.232C52.8258 290.731 52.7343 291.236 52.7739 291.747C52.8135 292.259 52.9915 292.721 53.3081 293.133C53.6246 293.546 54.0288 293.835 54.5206 293.999C55.0064 294.156 55.5188 294.191 56.0579 294.105C56.589 294.026 57.0887 293.806 57.5568 293.447Z" fill="#CFB270"/>
<path d="M42.8407 285.49L42.2744 284.641L49.9093 279.544C50.2336 279.328 50.4068 279.128 50.4289 278.945C50.451 278.762 50.4065 278.587 50.2954 278.421C50.1955 278.271 50.0789 278.132 49.9457 278.005C49.8125 277.877 49.6931 277.771 49.5877 277.685L50.1739 277.077C50.3459 277.19 50.5305 277.35 50.7275 277.555C50.919 277.752 51.0703 277.933 51.1813 278.1C51.4368 278.482 51.5299 278.865 51.4608 279.248C51.3862 279.622 51.1534 279.94 50.7625 280.201L42.8407 285.49Z" fill="#CFB270"/>
<path d="M47.0655 271.584C47.3468 272.068 47.5171 272.57 47.5766 273.091C47.6275 273.617 47.5809 274.124 47.4367 274.612C47.2839 275.106 47.0459 275.562 46.7226 275.981C46.3943 276.391 45.9881 276.737 45.5038 277.018C44.8726 277.385 44.2104 277.579 43.5172 277.6C42.8189 277.612 42.166 277.454 41.5583 277.124C40.942 276.8 40.4456 276.314 40.0689 275.665C39.6821 274.999 39.5056 274.327 39.5392 273.648C39.5678 272.961 39.763 272.321 40.1247 271.73C40.4778 271.143 40.9657 270.669 41.5882 270.307C41.6574 270.267 41.7266 270.227 41.7958 270.187C41.8563 270.151 41.9064 270.128 41.946 270.117L45.3062 275.902C45.7653 275.577 46.1198 275.192 46.3697 274.746C46.6059 274.297 46.7309 273.825 46.7448 273.331C46.745 272.834 46.6195 272.369 46.3684 271.937C46.1123 271.496 45.7588 271.146 45.3079 270.887C44.852 270.62 44.3973 270.514 43.9437 270.57L43.7067 269.684C44.1071 269.636 44.5198 269.68 44.9449 269.815C45.3701 269.949 45.7692 270.168 46.1422 270.472C46.5016 270.772 46.8093 271.143 47.0655 271.584ZM44.6857 276.297L41.7851 271.303C41.3123 271.624 40.9578 272.009 40.7216 272.459C40.4803 272.899 40.3639 273.366 40.3724 273.858C40.3671 274.347 40.4926 274.812 40.7488 275.253C41.0049 275.694 41.3466 276.033 41.7737 276.271C42.1922 276.513 42.6595 276.641 43.1756 276.653C43.678 276.662 44.1813 276.543 44.6857 276.297Z" fill="#CFB270"/>
<path d="M40.3974 259.784L34.6818 265.983L34.2271 265.02L39.2317 259.704L31.9408 260.177L31.5117 259.268L39.9299 258.794L40.3974 259.784Z" fill="#CFB270"/>
<path d="M33.8659 251.123C33.4071 251.296 32.9647 251.312 32.5387 251.173C32.1033 251.037 31.7105 250.773 31.3605 250.381C30.9976 249.983 30.702 249.48 30.4736 248.872C30.3401 248.516 30.2294 248.135 30.1416 247.731C30.0537 247.326 30.0098 246.952 30.0097 246.61L29.3918 246.842C28.7738 247.074 28.3508 247.441 28.1227 247.943C27.8945 248.446 27.9017 249.02 28.1441 249.666C28.2916 250.059 28.5123 250.419 28.8061 250.747C29.0871 251.069 29.4453 251.383 29.8808 251.689L29.3437 252.308C28.8368 251.953 28.4177 251.576 28.0864 251.177C27.7458 250.782 27.4858 250.345 27.3067 249.868C26.9694 248.969 26.9599 248.161 27.2781 247.443C27.5963 246.726 28.2095 246.196 29.1177 245.856L32.5023 244.586C32.6333 244.537 32.7211 244.472 32.7656 244.391C32.8007 244.314 32.8001 244.212 32.7638 244.087L33.5221 243.803C33.5701 243.902 33.6129 243.987 33.6503 244.059C33.6878 244.13 33.7089 244.186 33.7136 244.227C33.792 244.465 33.7839 244.671 33.6891 244.845C33.5944 245.02 33.4691 245.142 33.3135 245.211L32.7851 245.425C33.3294 245.594 33.8169 245.898 34.2477 246.334C34.6691 246.774 34.9817 247.266 35.1855 247.809C35.3611 248.277 35.4227 248.74 35.3701 249.197C35.3046 249.649 35.1438 250.046 34.8875 250.388C34.6184 250.724 34.2779 250.969 33.8659 251.123ZM32.5886 246.011C32.4189 245.957 32.2626 245.925 32.1198 245.915C31.977 245.904 31.8588 245.917 31.7652 245.952L30.6978 246.352C30.6956 246.716 30.7267 247.084 30.7911 247.455C30.852 247.816 30.9475 248.17 31.0775 248.517C31.3339 249.2 31.677 249.702 32.1066 250.021C32.5362 250.341 32.985 250.413 33.4532 250.237C33.7247 250.135 33.9558 249.968 34.1465 249.736C34.3279 249.508 34.4472 249.228 34.5045 248.897C34.5524 248.569 34.5079 248.223 34.3709 247.858C34.1988 247.399 33.95 247.006 33.6245 246.68C33.2956 246.344 32.9503 246.121 32.5886 246.011Z" fill="#CFB270"/>
<path d="M18.0657 225.985L18.9466 229.676L28.4011 227.42L28.6448 228.441L19.1903 230.697L20.0711 234.389L19.1665 234.605L17.1611 226.201L18.0657 225.985Z" fill="#CFB270"/>
<path d="M25.6325 213.427C25.712 213.981 25.682 214.511 25.5423 215.016C25.3927 215.522 25.1596 215.975 24.8431 216.374C24.5166 216.774 24.1251 217.108 23.6685 217.376C23.2104 217.634 22.7042 217.802 22.1499 217.882C21.4273 217.985 20.7407 217.917 20.09 217.677C19.4379 217.427 18.8918 217.036 18.4516 216.503C18.0016 215.972 17.7233 215.335 17.6167 214.592C17.5074 213.83 17.5953 213.141 17.8806 212.524C18.1645 211.897 18.5849 211.377 19.1419 210.964C19.6889 210.552 20.3188 210.295 21.0315 210.193C21.1107 210.181 21.1899 210.17 21.269 210.159C21.3383 210.149 21.3935 210.146 21.4345 210.15L22.3847 216.772C22.9319 216.643 23.4048 216.419 23.8035 216.099C24.1907 215.771 24.4832 215.38 24.681 214.927C24.8673 214.466 24.925 213.988 24.854 213.493C24.7816 212.988 24.5847 212.532 24.2634 212.123C23.9407 211.705 23.5587 211.436 23.1174 211.318L23.2293 210.408C23.6183 210.514 23.9847 210.708 24.3285 210.993C24.6723 211.277 24.9603 211.629 25.1925 212.051C25.4134 212.463 25.5601 212.922 25.6325 213.427ZM21.6614 216.906L20.8412 211.19C20.2826 211.31 19.8097 211.535 19.4224 211.863C19.0337 212.182 18.7511 212.571 18.5746 213.03C18.3868 213.482 18.3291 213.96 18.4016 214.465C18.474 214.969 18.6638 215.412 18.9709 215.792C19.2681 216.174 19.6537 216.467 20.1276 216.672C20.5901 216.868 21.1014 216.946 21.6614 216.906Z" fill="#CFB270"/>
<path d="M21.7851 203.135C21.2959 203.163 20.8685 203.048 20.5029 202.789C20.1273 202.53 19.8305 202.162 19.6124 201.683C19.3839 201.196 19.2508 200.628 19.2132 199.979C19.1912 199.599 19.1983 199.203 19.2345 198.79C19.2706 198.378 19.3394 198.008 19.4407 197.682L18.7818 197.72C18.1229 197.758 17.61 197.983 17.2433 198.395C16.8765 198.807 16.713 199.357 16.7529 200.046C16.7772 200.465 16.8811 200.875 17.0646 201.275C17.2374 201.666 17.4864 202.072 17.8113 202.494L17.1151 202.925C16.7362 202.436 16.4477 201.952 16.2496 201.473C16.0416 200.994 15.9228 200.5 15.8933 199.991C15.8378 199.032 16.0683 198.258 16.585 197.667C17.1017 197.076 17.8442 196.752 18.8126 196.696L22.4216 196.487C22.5613 196.479 22.6644 196.443 22.7308 196.379C22.7873 196.316 22.8167 196.219 22.8192 196.089L23.6278 196.042C23.6442 196.151 23.6596 196.245 23.6743 196.324C23.6889 196.404 23.6923 196.464 23.6847 196.504C23.6891 196.754 23.6203 196.949 23.478 197.087C23.3358 197.226 23.1801 197.305 23.011 197.325L22.4428 197.372C22.9123 197.696 23.288 198.13 23.57 198.674C23.842 199.22 23.9948 199.782 24.0283 200.361C24.0573 200.86 23.9787 201.32 23.7928 201.742C23.5963 202.154 23.325 202.485 22.9789 202.735C22.6223 202.976 22.2243 203.11 21.7851 203.135ZM22.0812 197.874C21.9351 197.772 21.7954 197.695 21.6622 197.643C21.5289 197.591 21.4124 197.567 21.3125 197.573L20.1744 197.639C20.0643 197.986 19.985 198.346 19.9365 198.72C19.8875 199.083 19.8737 199.45 19.8951 199.819C19.9373 200.548 20.1162 201.128 20.4317 201.561C20.7473 201.993 21.1546 202.195 21.6538 202.166C21.9433 202.149 22.2135 202.059 22.4644 201.894C22.7053 201.73 22.9022 201.498 23.0552 201.198C23.1981 200.9 23.2583 200.556 23.2358 200.166C23.2074 199.677 23.0862 199.228 22.8723 198.82C22.6577 198.402 22.394 198.086 22.0812 197.874Z" fill="#CFB270"/>
<path d="M23.699 176.613L23.64 177.632L19.2823 177.379C18.3738 177.327 17.6966 177.433 17.2505 177.697C16.8045 177.962 16.5649 178.379 16.532 178.948C16.4978 179.537 16.6768 180.078 17.0689 180.572C17.4616 181.055 17.9819 181.411 18.6298 181.639L23.3919 181.915L23.3329 182.933L18.9752 182.68C18.0567 182.627 17.3797 182.728 16.9442 182.983C16.4987 183.238 16.2592 183.655 16.2257 184.234C16.1921 184.813 16.3664 185.349 16.7486 185.842C17.1307 186.335 17.6507 186.696 18.3086 186.924L23.0856 187.201L23.0266 188.219L15.2246 187.767L15.2784 186.839L17.0455 186.941C16.4556 186.576 16.0107 186.13 15.7107 185.601C15.4114 185.063 15.2799 184.48 15.3163 183.851C15.3539 183.202 15.569 182.688 15.9615 182.31C16.354 181.933 16.8524 181.716 17.4566 181.661C16.8185 181.263 16.3442 180.805 16.0337 180.286C15.7238 179.757 15.5873 179.174 15.6244 178.535C15.6498 178.095 15.7511 177.731 15.9282 177.44C16.1058 177.14 16.3496 176.909 16.6595 176.747C16.96 176.574 17.3222 176.459 17.7462 176.404C18.1607 176.338 18.6225 176.319 19.1317 176.349L23.699 176.613Z" fill="#CFB270"/>
<path d="M25.6734 158.59L15.2837 156.319L15.5079 155.293L21.5454 156.613L16.7457 149.56L16.9923 148.432L20.6355 153.681L27.4447 150.486L27.1917 151.644L21.1068 154.475L22.7031 156.866L25.8976 157.564L25.6734 158.59Z" fill="#CFB270"/>
<path d="M30.3252 140.004C30.1543 140.537 29.8957 141 29.5492 141.393C29.1963 141.774 28.7903 142.074 28.3312 142.294C27.8655 142.502 27.3752 142.623 26.8601 142.658C26.3355 142.689 25.8161 142.623 25.3018 142.458C24.7685 142.287 24.3023 142.038 23.9031 141.711C23.4945 141.38 23.1674 140.992 22.9218 140.546C22.6667 140.096 22.5108 139.616 22.4542 139.104C22.3912 138.58 22.4451 138.051 22.6159 137.518C22.7868 136.985 23.0487 136.528 23.4016 136.147C23.745 135.764 24.151 135.463 24.6197 135.246C25.0788 135.026 25.5707 134.9 26.0953 134.868C26.6104 134.834 27.1346 134.902 27.6679 135.073C28.1821 135.237 28.6436 135.485 29.0522 135.816C29.4514 136.143 29.7785 136.531 30.0336 136.98C30.2822 137.417 30.4381 137.898 30.5011 138.422C30.5577 138.933 30.4991 139.461 30.3252 140.004ZM25.6319 141.477C26.1842 141.654 26.7271 141.697 27.2605 141.605C27.7874 141.501 28.2498 141.287 28.6476 140.962C29.0359 140.635 29.3094 140.224 29.4681 139.729C29.6267 139.234 29.6383 138.739 29.5029 138.244C29.3674 137.749 29.1108 137.304 28.733 136.91C28.3457 136.513 27.8806 136.228 27.3378 136.054C26.7855 135.877 26.2411 135.839 25.7046 135.94C25.1682 136.041 24.701 136.254 24.3032 136.578C23.9054 136.902 23.6271 137.312 23.4685 137.807C23.3098 138.302 23.303 138.799 23.4479 139.297C23.596 139.785 23.8589 140.226 24.2367 140.62C24.6049 141.011 25.07 141.297 25.6319 141.477Z" fill="#CFB270"/>
<path d="M28.8628 122.947C28.6282 123.586 28.5812 124.213 28.7218 124.83C28.866 125.437 29.1914 125.956 29.698 126.385L34.2087 128.194L33.829 129.141L26.5757 126.232L26.933 125.341L28.6733 126.039C28.2633 125.583 27.9825 125.088 27.8307 124.553C27.6826 124.009 27.6831 123.498 27.8321 123.019C27.8601 122.922 27.8871 122.841 27.9131 122.776C27.9429 122.702 27.9718 122.644 27.9997 122.601L28.8628 122.947Z" fill="#CFB270"/>
<path d="M38.452 118.48C38.2073 118.983 37.8856 119.405 37.487 119.745C37.0837 120.072 36.6392 120.312 36.1534 120.465C35.6631 120.605 35.1605 120.655 34.6457 120.616C34.1219 120.573 33.6172 120.433 33.1315 120.197C32.6278 119.953 32.2016 119.64 31.8529 119.259C31.4952 118.874 31.2264 118.443 31.0466 117.967C30.8577 117.486 30.7716 116.988 30.7881 116.474C30.7999 115.946 30.9283 115.43 31.173 114.927C31.4177 114.423 31.7417 114.008 32.145 113.681C32.5393 113.35 32.9838 113.11 33.4785 112.961C33.9643 112.808 34.469 112.753 34.9928 112.797C35.5076 112.836 36.0168 112.977 36.5205 113.222C37.0062 113.458 37.4279 113.769 37.7856 114.154C38.1343 114.534 38.4031 114.965 38.5919 115.446C38.7762 115.913 38.8623 116.411 38.8504 116.939C38.8339 117.453 38.7011 117.967 38.452 118.48ZM33.5973 119.273C34.119 119.526 34.6503 119.646 35.1913 119.631C35.7277 119.602 36.2157 119.456 36.6555 119.191C37.0863 118.922 37.4153 118.554 37.6425 118.086C37.8698 117.619 37.9514 117.13 37.8875 116.621C37.8236 116.112 37.6325 115.636 37.3144 115.192C36.9873 114.744 36.5674 114.396 36.0547 114.146C35.533 113.893 34.9995 113.778 34.4541 113.802C33.9088 113.826 33.4162 113.971 32.9764 114.235C32.5367 114.5 32.2032 114.866 31.9759 115.333C31.7487 115.801 31.6715 116.292 31.7445 116.805C31.8218 117.31 32.0195 117.784 32.3376 118.227C32.6467 118.667 33.0666 119.015 33.5973 119.273Z" fill="#CFB270"/>
<path d="M33.8984 102.918L34.401 102.03L42.3895 106.553C42.7289 106.745 42.9853 106.81 43.1587 106.747C43.3321 106.684 43.4681 106.566 43.5666 106.392C43.6553 106.235 43.7266 106.069 43.7804 105.892C43.8343 105.716 43.8759 105.561 43.9051 105.429L44.7117 105.678C44.6877 105.883 44.6285 106.12 44.5341 106.388C44.4445 106.648 44.3505 106.864 44.252 107.038C44.0254 107.439 43.7256 107.694 43.3527 107.805C42.9847 107.907 42.5962 107.842 42.1872 107.61L33.8984 102.918Z" fill="#CFB270"/>
<path d="M48.5802 99.8208C48.2726 100.289 47.8993 100.666 47.4602 100.952C47.0128 101.232 46.5384 101.417 46.0369 101.506C45.5272 101.59 45.0126 101.581 44.4933 101.479C43.9794 101.369 43.4885 101.16 43.0205 100.852C42.4104 100.451 41.9411 99.9456 41.6125 99.3348C41.2894 98.7157 41.1394 98.0607 41.1625 97.37C41.1773 96.6737 41.3906 96.0122 41.8025 95.3854C42.2253 94.7419 42.7478 94.2835 43.3701 94.0103C43.9978 93.7288 44.6572 93.6176 45.3482 93.6768C46.0308 93.7305 46.673 93.955 47.2748 94.3504C47.3416 94.3943 47.4085 94.4382 47.4753 94.4822C47.5338 94.5206 47.5771 94.555 47.605 94.5853L43.9313 100.176C44.4267 100.442 44.9297 100.587 45.4402 100.611C45.9478 100.622 46.4256 100.523 46.8736 100.315C47.3186 100.093 47.6784 99.7728 47.953 99.3549C48.2331 98.9287 48.388 98.4561 48.4178 97.9373C48.4531 97.4101 48.3447 96.9559 48.0925 96.5749L48.7791 95.967C49.0005 96.3039 49.1459 96.6926 49.2154 97.1332C49.2849 97.5737 49.2671 98.0287 49.1621 98.4981C49.0542 98.9537 48.8602 99.3946 48.5802 99.8208ZM43.3005 99.7978L46.4718 94.9715C45.9735 94.6919 45.4705 94.5469 44.9628 94.5364C44.4607 94.5175 43.9913 94.6219 43.5546 94.8495C43.115 95.0632 42.7552 95.3832 42.4751 95.8094C42.1951 96.2356 42.0442 96.6929 42.0225 97.1812C41.9924 97.664 42.0871 98.139 42.3066 98.6063C42.5232 99.0597 42.8545 99.4569 43.3005 99.7978Z" fill="#CFB270"/>
<path d="M55.9188 88.8552L47.8169 86.5204L48.4744 85.6826L55.4682 87.7771L51.7803 81.4699L52.4007 80.6793L56.5948 87.9938L55.9188 88.8552Z" fill="#CFB270"/>
<path d="M61.0935 78.6769C60.7347 78.3432 60.5224 77.9547 60.4568 77.5113C60.3838 77.0611 60.4446 76.5919 60.6391 76.1037C60.8331 75.6014 61.1515 75.1122 61.5941 74.6362C61.8528 74.3579 62.1438 74.089 62.4669 73.8296C62.79 73.5702 63.1045 73.3642 63.4103 73.2116L62.9269 72.7622C62.4436 72.3127 61.9264 72.098 61.3752 72.1181C60.824 72.1381 60.3135 72.4008 59.8436 72.9061C59.5576 73.2137 59.3336 73.5721 59.1716 73.9813C59.0091 74.3763 58.8878 74.8371 58.8079 75.3636L58.0151 75.159C58.106 74.5471 58.2561 74.0039 58.4653 73.5293C58.6671 73.0479 58.9417 72.6205 59.289 72.247C59.9427 71.544 60.6616 71.1746 61.4457 71.1391C62.2298 71.1035 62.9771 71.416 63.6874 72.0765L66.3348 74.5381C66.4373 74.6335 66.5346 74.683 66.6268 74.6867C66.7116 74.6836 66.8019 74.6379 66.8977 74.5495L67.4909 75.1011C67.4233 75.1884 67.366 75.2648 67.3188 75.3302C67.2717 75.3956 67.2308 75.4395 67.1962 75.462C67.0187 75.6383 66.8307 75.723 66.6323 75.716C66.434 75.7091 66.2691 75.6514 66.1378 75.543L65.7102 75.1658C65.8014 75.7285 65.7479 76.3001 65.5496 76.8804C65.3441 77.454 65.0438 77.9531 64.6488 78.3779C64.3084 78.744 63.9216 79.0057 63.4886 79.163C63.0552 79.3061 62.6283 79.3393 62.208 79.2626C61.7872 79.1718 61.4158 78.9765 61.0935 78.6769ZM65.0977 75.2518C65.0701 75.0759 65.0291 74.9217 64.9748 74.7892C64.9204 74.6568 64.8566 74.5565 64.7834 74.4884L63.9485 73.7121C63.6218 73.8726 63.3068 74.0644 63.0036 74.2877C62.7072 74.5037 62.433 74.7472 62.1811 75.0181C61.684 75.5527 61.3884 76.0836 61.2944 76.6106C61.2003 77.1376 61.3364 77.5713 61.7025 77.9118C61.9149 78.1093 62.1674 78.2416 62.4599 78.3088C62.7451 78.3692 63.0487 78.3511 63.3707 78.2545C63.6854 78.1511 63.9755 77.9566 64.241 77.671C64.5747 77.3121 64.815 76.9142 64.9618 76.4773C65.1155 76.033 65.1608 75.6245 65.0977 75.2518Z" fill="#CFB270"/>
<path d="M76.7075 53.1036L73.8004 55.543L80.0485 62.9888L79.2441 63.6638L72.9961 56.218L70.089 58.6574L69.4912 57.945L76.1097 52.3912L76.7075 53.1036Z" fill="#CFB270"/>
<path d="M90.7025 54.676C90.2437 54.9971 89.7574 55.2092 89.2437 55.3124C88.7243 55.4074 88.2152 55.4036 87.7163 55.3012C87.2116 55.1905 86.7369 54.9918 86.2921 54.705C85.8555 54.4125 85.4766 54.0368 85.1555 53.578C84.737 52.98 84.488 52.3364 84.4086 51.6474C84.3374 50.9527 84.4403 50.2887 84.7173 49.6555C84.9885 49.0141 85.4313 48.4783 86.0458 48.0483C86.6767 47.6068 87.3317 47.3742 88.0108 47.3505C88.6982 47.3211 89.3519 47.4617 89.972 47.7722C90.5864 48.0746 91.1 48.5207 91.5129 49.1106C91.5587 49.1762 91.6046 49.2417 91.6505 49.3073C91.6906 49.3646 91.718 49.4125 91.7328 49.451L86.2517 53.2869C86.6138 53.7171 87.0274 54.0378 87.4927 54.2492C87.9605 54.4467 88.441 54.5316 88.9342 54.5038C89.4298 54.462 89.8824 54.2978 90.2921 54.0111C90.7099 53.7187 91.0287 53.337 91.2483 52.866C91.4761 52.3892 91.5433 51.9271 91.4499 51.4798L92.3126 51.169C92.3937 51.5639 92.385 51.9789 92.2867 52.4139C92.1883 52.8489 92.0035 53.265 91.7323 53.6623C91.4636 54.0457 91.1203 54.3836 90.7025 54.676ZM85.8057 52.7019L90.5371 49.3907C90.1775 48.9466 89.7638 48.6259 89.2961 48.4284C88.8365 48.2252 88.3618 48.1485 87.8719 48.1984C87.3844 48.2344 86.9318 48.3986 86.5139 48.6911C86.0961 48.9835 85.7868 49.3525 85.586 49.7981C85.3796 50.2356 85.2918 50.712 85.3229 51.2273C85.3565 51.7286 85.5174 52.2202 85.8057 52.7019Z" fill="#CFB270"/>
<path d="M98.8374 46.1461C98.5928 45.7215 98.5045 45.2877 98.5725 44.8446C98.6355 44.3929 98.8318 43.9625 99.1616 43.5533C99.4951 43.1304 99.9435 42.7568 100.507 42.4324C100.836 42.2428 101.193 42.0716 101.579 41.919C101.964 41.7664 102.325 41.6622 102.662 41.6065L102.333 41.0345C102.004 40.4626 101.573 40.105 101.04 39.9617C100.507 39.8184 99.9419 39.9189 99.344 40.2632C98.98 40.4729 98.6603 40.7493 98.3849 41.0926C98.1131 41.4222 97.8615 41.8268 97.6299 42.3063L96.9326 41.8771C97.1999 41.3192 97.5034 40.8444 97.8432 40.4525C98.1779 40.052 98.5663 39.7245 99.0083 39.4699C99.8401 38.9908 100.636 38.8498 101.396 39.0469C102.156 39.2441 102.778 39.7629 103.262 40.6035L105.066 43.7361C105.136 43.8574 105.214 43.9334 105.301 43.9641C105.383 43.9862 105.483 43.9691 105.601 43.9129L106.005 44.6148C105.914 44.6783 105.837 44.7344 105.773 44.783C105.708 44.8316 105.656 44.8615 105.617 44.8728C105.395 44.9889 105.191 45.0144 105.003 44.9493C104.816 44.8842 104.675 44.7805 104.582 44.6382L104.284 44.1518C104.205 44.7164 103.986 45.2468 103.625 45.7429C103.26 46.2303 102.826 46.6188 102.323 46.9083C101.89 47.1578 101.443 47.2939 100.983 47.3165C100.527 47.3255 100.109 47.2314 99.7297 47.0343C99.3544 46.8234 99.057 46.5274 98.8374 46.1461ZM103.673 44.0534C103.699 43.8771 103.705 43.7177 103.692 43.5751C103.679 43.4325 103.648 43.3179 103.598 43.2313L103.029 42.2434C102.67 42.3004 102.312 42.3909 101.957 42.5149C101.61 42.6339 101.276 42.7858 100.955 42.9704C100.323 43.3348 99.8836 43.7549 99.6384 44.2308C99.3931 44.7066 99.3953 45.1612 99.6449 45.5945C99.7896 45.8458 99.9918 46.0467 100.252 46.1971C100.507 46.3389 100.802 46.4111 101.138 46.4137C101.469 46.4076 101.804 46.3072 102.142 46.1126C102.566 45.868 102.913 45.5586 103.182 45.1844C103.46 44.8051 103.624 44.4281 103.673 44.0534Z" fill="#CFB270"/>
<path d="M122.201 36.5074L121.266 36.9153L119.521 32.9144C119.157 32.0803 118.756 31.5241 118.319 31.246C117.881 30.9678 117.401 30.9427 116.878 31.1706C116.337 31.4065 115.936 31.8109 115.673 32.3838C115.419 32.9526 115.337 33.5775 115.427 34.2585L117.334 38.6306L116.399 39.0384L114.654 35.0375C114.286 34.1943 113.89 33.6361 113.465 33.3631C113.037 33.0809 112.557 33.0558 112.025 33.2877C111.493 33.5196 111.094 33.9174 110.827 34.4812C110.56 35.0449 110.474 35.6718 110.568 36.3619L112.481 40.7477L111.546 41.1556L108.421 33.9924L109.274 33.6206L109.981 35.243C110.04 34.5519 110.237 33.9532 110.572 33.4468C110.917 32.9364 111.378 32.5552 111.956 32.3033C112.551 32.0434 113.106 32.0031 113.621 32.1823C114.136 32.3615 114.554 32.7081 114.877 33.222C114.943 32.4732 115.137 31.8429 115.459 31.3314C115.791 30.8158 116.25 30.4301 116.836 30.1742C117.24 29.9983 117.611 29.9237 117.95 29.9504C118.298 29.9731 118.614 30.0859 118.899 30.2889C119.189 30.4788 119.455 30.7502 119.696 31.1031C119.943 31.443 120.168 31.8466 120.372 32.3141L122.201 36.5074Z" fill="#CFB270"/>
<path d="M139.053 30.1262L136.389 19.8304L137.405 19.5674L138.953 25.5502L143.079 18.0833L144.197 17.794L141.159 23.4146L147.084 28.0479L145.936 28.3448L140.663 24.1936L139.25 26.6974L140.07 29.8631L139.053 30.1262Z" fill="#CFB270"/>
<path d="M158.054 25.8083C157.501 25.8964 156.971 25.8744 156.464 25.7425C155.966 25.5991 155.514 25.3722 155.11 25.0618C154.715 24.74 154.386 24.357 154.123 23.9129C153.858 23.4588 153.683 22.9651 153.598 22.4319C153.51 21.8788 153.522 21.3504 153.634 20.8465C153.745 20.3327 153.944 19.8656 154.232 19.4452C154.517 19.0149 154.876 18.6591 155.307 18.3778C155.747 18.0851 156.243 17.8947 156.796 17.8067C157.349 17.7187 157.875 17.7463 158.374 17.8897C158.871 18.0232 159.322 18.2501 159.727 18.5704C160.131 18.8807 160.465 19.2629 160.73 19.717C160.993 20.1611 161.169 20.6598 161.257 21.2128C161.342 21.7461 161.329 22.2696 161.218 22.7834C161.106 23.2873 160.907 23.7544 160.621 24.1847C160.343 24.6035 159.985 24.9593 159.545 25.252C159.114 25.5333 158.617 25.7187 158.054 25.8083ZM154.623 22.284C154.714 22.8568 154.921 23.3605 155.243 23.7953C155.574 24.2185 155.973 24.5346 156.442 24.7436C156.909 24.9426 157.399 25.0013 157.913 24.9195C158.426 24.8378 158.874 24.6249 159.254 24.2807C159.635 23.9366 159.916 23.5071 160.097 22.9922C160.277 22.4674 160.322 21.9236 160.232 21.3607C160.141 20.7879 159.929 20.2849 159.597 19.8518C159.265 19.4186 158.865 19.0975 158.396 18.8886C157.927 18.6797 157.436 18.6161 156.923 18.6979C156.409 18.7796 155.963 18.9975 155.584 19.3515C155.214 19.7039 154.939 20.1375 154.758 20.6524C154.575 21.1575 154.53 21.7013 154.623 22.284Z" fill="#CFB270"/>
<path d="M172.041 16.851C171.366 16.9312 170.785 17.1736 170.299 17.5783C169.823 17.982 169.508 18.507 169.355 19.1531L169.785 23.994L168.769 24.0843L168.077 16.3001L169.033 16.215L169.199 18.0826C169.42 17.5109 169.734 17.0362 170.142 16.6586C170.56 16.28 171.016 16.0487 171.511 15.9646C171.61 15.9457 171.694 15.9332 171.764 15.927C171.843 15.9199 171.908 15.9192 171.959 15.9247L172.041 16.851Z" fill="#CFB270"/>
<path d="M180.235 23.3532C179.675 23.364 179.153 23.269 178.669 23.0683C178.195 22.8574 177.779 22.5704 177.422 22.2072C177.075 21.8339 176.802 21.4091 176.603 20.9328C176.403 20.4466 176.298 19.9335 176.288 19.3936C176.277 18.8337 176.362 18.312 176.543 17.8284C176.723 17.3348 176.985 16.8997 177.328 16.523C177.67 16.1363 178.074 15.8335 178.54 15.6144C179.016 15.3852 179.534 15.2652 180.094 15.2544C180.653 15.2436 181.171 15.3436 181.645 15.5545C182.119 15.7554 182.534 16.0424 182.892 16.4156C183.249 16.7788 183.527 17.2035 183.726 17.6897C183.926 18.166 184.031 18.684 184.041 19.2439C184.052 19.7838 183.967 20.3006 183.786 20.7942C183.605 21.2777 183.344 21.7129 183.001 22.0996C182.668 22.476 182.264 22.7789 181.789 23.0081C181.323 23.2272 180.805 23.3422 180.235 23.3532ZM177.323 19.3886C177.334 19.9685 177.469 20.496 177.728 20.9711C177.998 21.436 178.35 21.8043 178.785 22.0759C179.22 22.3376 179.698 22.4634 180.218 22.4533C180.737 22.4433 181.21 22.2942 181.634 22.0059C182.059 21.7177 182.396 21.3311 182.647 20.8462C182.897 20.3512 183.017 19.8188 183.006 19.2489C182.995 18.669 182.855 18.1416 182.586 17.6667C182.316 17.1918 181.964 16.8186 181.529 16.5469C181.093 16.2753 180.616 16.1445 180.096 16.1545C179.576 16.1645 179.104 16.3187 178.68 16.6169C178.265 16.915 177.933 17.3065 177.682 17.7914C177.431 18.2663 177.311 18.7987 177.323 19.3886Z" fill="#CFB270"/>
<path d="M194.031 12.2688L195.05 12.3199L194.589 21.4884C194.57 21.8779 194.627 22.1361 194.761 22.263C194.895 22.3898 195.061 22.4583 195.261 22.4683C195.441 22.4773 195.622 22.4664 195.804 22.4355C195.985 22.4045 196.142 22.3724 196.274 22.3389L196.412 23.1719C196.219 23.2423 195.981 23.2954 195.698 23.3313C195.426 23.3677 195.19 23.3809 194.991 23.3709C194.531 23.3478 194.168 23.1944 193.902 22.9107C193.646 22.6275 193.53 22.2512 193.553 21.7818L194.031 12.2688Z" fill="#CFB270"/>
<path d="M202.239 23.8928C201.683 23.8303 201.178 23.6679 200.724 23.4057C200.271 23.1335 199.892 22.7941 199.585 22.3873C199.28 21.9707 199.055 21.5077 198.911 20.9984C198.777 20.4903 198.741 19.958 198.804 19.4015C198.885 18.676 199.124 18.0286 199.52 17.4592C199.926 16.891 200.442 16.4609 201.068 16.1689C201.696 15.8671 202.382 15.758 203.128 15.8416C203.893 15.9275 204.538 16.1861 205.063 16.6174C205.598 17.0498 205.996 17.5875 206.256 18.2305C206.517 18.8635 206.607 19.5378 206.527 20.2533C206.518 20.3328 206.509 20.4123 206.5 20.4918C206.492 20.5614 206.481 20.6155 206.467 20.6541L199.818 19.9079C199.806 20.4699 199.904 20.9841 200.113 21.4504C200.334 21.9078 200.638 22.2891 201.026 22.5944C201.426 22.8908 201.874 23.0669 202.371 23.1226C202.878 23.1795 203.369 23.1039 203.845 22.8957C204.331 22.6886 204.687 22.3865 204.913 21.9892L205.766 22.3264C205.566 22.6762 205.285 22.9818 204.923 23.2431C204.562 23.5044 204.148 23.6945 203.682 23.8132C203.227 23.9231 202.746 23.9496 202.239 23.8928ZM199.871 19.1741L205.61 19.8183C205.633 19.2474 205.535 18.7332 205.315 18.2758C205.104 17.8195 204.799 17.4481 204.398 17.1616C204.009 16.8663 203.561 16.6902 203.054 16.6333C202.547 16.5764 202.071 16.6488 201.626 16.8504C201.182 17.042 200.801 17.3414 200.484 17.7486C200.177 18.1469 199.973 18.6221 199.871 19.1741Z" fill="#CFB270"/>
<path d="M216.429 25.6562L214.879 17.3683L215.923 17.5798L217.19 24.7697L221.171 18.6433L222.156 18.8429L217.502 25.8737L216.429 25.6562Z" fill="#CFB270"/>
<path d="M226.417 25.3464C226.553 24.8754 226.803 24.5104 227.169 24.2513C227.537 23.9827 227.983 23.8247 228.507 23.7774C229.043 23.7232 229.623 23.7859 230.248 23.9654C230.613 24.0704 230.984 24.2083 231.362 24.3792C231.739 24.5501 232.065 24.7374 232.339 24.9411L232.522 24.3068C232.704 23.6724 232.662 23.114 232.394 22.6314C232.127 22.1489 231.662 21.8124 230.999 21.6218C230.595 21.5058 230.174 21.4681 229.736 21.5087C229.31 21.5424 228.844 21.6426 228.339 21.8094L228.163 21.0097C228.75 20.8142 229.302 20.7024 229.82 20.6743C230.34 20.6366 230.846 20.6882 231.336 20.8291C232.259 21.0942 232.913 21.5684 233.3 22.2516C233.686 22.9349 233.745 23.7427 233.477 24.6749L232.479 28.1494C232.44 28.2839 232.44 28.3931 232.478 28.477C232.52 28.5512 232.601 28.6111 232.723 28.6566L232.5 29.4351C232.391 29.4143 232.297 29.3977 232.217 29.3852C232.138 29.3727 232.08 29.3562 232.044 29.3355C231.807 29.2569 231.646 29.1275 231.563 28.9474C231.479 28.7674 231.456 28.5942 231.494 28.4281L231.637 27.8761C231.176 28.212 230.642 28.4227 230.035 28.5083C229.43 28.5843 228.849 28.5423 228.292 28.3821C227.811 28.244 227.403 28.0174 227.067 27.7024C226.743 27.3805 226.521 27.0148 226.399 26.6052C226.29 26.1889 226.296 25.7692 226.417 25.3464ZM231.283 27.3687C231.427 27.2645 231.546 27.1583 231.64 27.0499C231.733 26.9415 231.794 26.8393 231.822 26.7432L232.137 25.6475C231.846 25.4287 231.532 25.2345 231.196 25.0651C230.869 24.8984 230.528 24.7639 230.172 24.6617C229.471 24.4601 228.864 24.4366 228.351 24.591C227.838 24.7455 227.513 25.063 227.375 25.5435C227.295 25.8223 227.291 26.1073 227.363 26.3986C227.439 26.6803 227.592 26.9429 227.824 27.1863C228.058 27.4202 228.363 27.591 228.738 27.6987C229.209 27.834 229.672 27.8684 230.128 27.8017C230.594 27.7379 230.979 27.5935 231.283 27.3687Z" fill="#CFB270"/>
<path d="M257.124 28.0286L253.64 26.5242L249.787 35.4479L248.823 35.0317L252.676 26.108L249.192 24.6036L249.561 23.7498L257.493 27.1748L257.124 28.0286Z" fill="#CFB270"/>
<path d="M262.208 41.3582C261.715 41.0913 261.308 40.7512 260.986 40.3378C260.669 39.9157 260.445 39.4586 260.313 38.9665C260.187 38.4656 260.152 37.9522 260.21 37.4261C260.276 36.9047 260.443 36.3979 260.71 35.9056C261.058 35.2638 261.522 34.7534 262.103 34.3744C262.693 34.0001 263.333 33.7953 264.023 33.76C264.718 33.7158 265.395 33.8725 266.054 34.2299C266.731 34.5968 267.232 35.0787 267.557 35.6756C267.891 36.2773 268.057 36.9249 268.057 37.6185C268.061 38.3032 267.891 38.9621 267.548 39.5951C267.51 39.6654 267.472 39.7357 267.434 39.8061C267.4 39.8676 267.37 39.9136 267.342 39.944L261.46 36.756C261.238 37.2721 261.136 37.7856 261.154 38.2963C261.187 38.803 261.326 39.2707 261.571 39.6994C261.83 40.1241 262.179 40.4556 262.619 40.6939C263.067 40.9369 263.551 41.0514 264.071 41.0372C264.599 41.0278 265.042 40.8814 265.401 40.598L266.064 41.2307C265.747 41.4797 265.372 41.6575 264.939 41.764C264.506 41.8705 264.051 41.8912 263.575 41.8262C263.112 41.7572 262.656 41.6012 262.208 41.3582ZM261.784 36.0955L266.861 38.8475C267.098 38.3273 267.2 37.8139 267.167 37.3072C267.144 36.8052 267 36.3463 266.736 35.9304C266.486 35.5105 266.137 35.179 265.689 34.9359C265.24 34.6929 264.772 34.5812 264.284 34.6009C263.8 34.6117 263.335 34.7462 262.888 35.0044C262.454 35.2585 262.086 35.6222 261.784 36.0955Z" fill="#CFB270"/>
<path d="M272.554 44.2505C272.823 43.841 273.171 43.5668 273.597 43.4281C274.029 43.281 274.502 43.2626 275.015 43.3729C275.543 43.4803 276.079 43.7125 276.622 44.0694C276.939 44.2781 277.253 44.52 277.563 44.7953C277.872 45.0706 278.128 45.3463 278.33 45.6223L278.692 45.0707C279.055 44.5191 279.18 43.9733 279.068 43.4332C278.956 42.8931 278.612 42.4336 278.035 42.0547C277.684 41.824 277.294 41.663 276.863 41.5716C276.446 41.4773 275.972 41.4347 275.439 41.4438L275.509 40.6279C276.127 40.6154 276.688 40.6727 277.191 40.7997C277.699 40.9184 278.166 41.1177 278.593 41.3978C279.395 41.925 279.879 42.5721 280.045 43.3393C280.211 44.1065 280.028 44.8954 279.495 45.706L277.51 48.7272C277.433 48.8442 277.4 48.9484 277.412 49.0399C277.429 49.123 277.49 49.2044 277.593 49.2842L277.148 49.9611C277.051 49.909 276.966 49.8652 276.893 49.8297C276.821 49.7941 276.771 49.7611 276.743 49.7308C276.539 49.5852 276.425 49.414 276.398 49.2172C276.372 49.0205 276.401 48.8483 276.486 48.7008L276.787 48.2162C276.247 48.4 275.675 48.4427 275.069 48.3441C274.47 48.2372 273.927 48.0244 273.443 47.7059C273.025 47.4314 272.702 47.0938 272.475 46.6931C272.261 46.2896 272.157 45.8743 272.163 45.4471C272.182 45.0171 272.313 44.6182 272.554 44.2505ZM276.6 47.6266C276.769 47.57 276.914 47.5039 277.035 47.4282C277.157 47.3525 277.245 47.2729 277.3 47.1893L277.926 46.2366C277.713 45.9412 277.471 45.6627 277.201 45.401C276.938 45.1448 276.652 44.9151 276.343 44.7119C275.733 44.3111 275.16 44.1083 274.625 44.1035C274.09 44.0988 273.685 44.3053 273.41 44.7232C273.251 44.9656 273.163 45.2366 273.145 45.5362C273.133 45.8275 273.202 46.1239 273.351 46.4252C273.505 46.7181 273.746 46.9717 274.072 47.1859C274.481 47.4549 274.913 47.6254 275.369 47.6973C275.833 47.7746 276.243 47.7511 276.6 47.6266Z" fill="#CFB270"/>
<path d="M292.397 61.3071L291.613 60.6543L294.407 57.3004C294.989 56.6012 295.306 55.9936 295.359 55.4776C295.411 54.9616 295.218 54.5212 294.78 54.1564C294.327 53.7788 293.785 53.6009 293.156 53.6228C292.533 53.6511 291.938 53.8581 291.37 54.2436L288.317 57.9087L287.533 57.2559L290.327 53.902C290.915 53.1951 291.237 52.5907 291.29 52.0887C291.35 51.5791 291.158 51.1387 290.712 50.7675C290.266 50.3963 289.732 50.2178 289.108 50.2321C288.485 50.2463 287.885 50.45 287.311 50.8432L284.248 54.5198L283.464 53.867L288.466 47.8622L289.181 48.4574L288.048 49.8175C288.692 49.56 289.315 49.4676 289.918 49.5405C290.529 49.6197 291.077 49.8609 291.561 50.2642C292.06 50.6802 292.345 51.1583 292.416 51.6986C292.486 52.2389 292.364 52.7684 292.049 53.287C292.748 53.0103 293.399 52.9013 294 52.9601C294.61 53.0252 295.161 53.2626 295.652 53.6722C295.99 53.9538 296.223 54.2521 296.352 54.567C296.487 54.8884 296.528 55.2219 296.475 55.5676C296.435 55.912 296.312 56.2712 296.104 56.6451C295.911 57.0178 295.651 57.4 295.325 57.7919L292.397 61.3071Z" fill="#CFB270"/>
<path d="M305.768 73.6252L313.764 66.6128L314.456 67.4022L309.81 71.4771L318.335 71.8018L319.096 72.6701L312.709 72.4855L311.238 79.8616L310.456 78.9707L311.791 72.3935L308.919 72.2585L306.46 74.4146L305.768 73.6252Z" fill="#CFB270"/>
<path d="M318.187 88.6744C317.859 88.2203 317.64 87.7373 317.529 87.2251C317.432 86.7153 317.431 86.2102 317.527 85.7098C317.636 85.2118 317.829 84.7452 318.107 84.3102C318.393 83.8694 318.755 83.4909 319.193 83.1749C319.647 82.8471 320.124 82.6198 320.625 82.4929C321.133 82.3602 321.64 82.3274 322.145 82.3946C322.658 82.456 323.137 82.6158 323.582 82.874C324.042 83.1344 324.435 83.4916 324.763 83.9457C325.091 84.3998 325.303 84.8817 325.4 85.3916C325.505 85.8956 325.505 86.4007 325.402 86.9069C325.307 87.4072 325.116 87.8778 324.83 88.3187C324.552 88.7536 324.186 89.135 323.732 89.4628C323.294 89.7789 322.821 90.0032 322.313 90.136C321.812 90.2629 321.305 90.2956 320.792 90.2342C320.293 90.1751 319.814 90.0153 319.355 89.7549C318.91 89.4967 318.52 89.1366 318.187 88.6744ZM319.787 84.0228C319.316 84.3623 318.96 84.7739 318.717 85.2575C318.488 85.7434 318.386 86.2426 318.411 86.7552C318.443 87.2618 318.612 87.726 318.916 88.1476C319.221 88.5693 319.612 88.8725 320.091 89.0572C320.57 89.242 321.08 89.2993 321.621 89.2292C322.17 89.1532 322.676 88.9484 323.138 88.6148C323.609 88.2753 323.962 87.8597 324.199 87.368C324.436 86.8762 324.543 86.3741 324.518 85.8615C324.493 85.349 324.329 84.8819 324.024 84.4603C323.72 84.0387 323.325 83.7384 322.838 83.5595C322.357 83.3887 321.846 83.3383 321.304 83.4084C320.771 83.4727 320.265 83.6775 319.787 84.0228Z" fill="#CFB270"/>
<path d="M332.628 97.3709C332.252 96.8038 331.774 96.3943 331.194 96.1424C330.619 95.899 330.009 95.8543 329.363 96.0082L325.234 98.5718L324.696 97.7053L331.335 93.5829L331.842 94.3985L330.249 95.3875C330.859 95.3268 331.424 95.3936 331.945 95.5881C332.471 95.7911 332.883 96.0944 333.181 96.4981C333.242 96.5777 333.291 96.6473 333.328 96.7068C333.37 96.7748 333.4 96.8326 333.418 96.8804L332.628 97.3709Z" fill="#CFB270"/>
<path d="M330.514 107.667C330.253 107.172 330.103 106.663 330.065 106.141C330.04 105.622 330.109 105.122 330.273 104.64C330.45 104.162 330.707 103.727 331.043 103.334C331.388 102.938 331.799 102.613 332.276 102.361C332.771 102.1 333.276 101.941 333.789 101.885C334.311 101.825 334.817 101.863 335.308 101.999C335.807 102.132 336.26 102.356 336.665 102.674C337.083 102.996 337.423 103.404 337.685 103.9C337.946 104.395 338.089 104.902 338.114 105.42C338.148 105.934 338.078 106.434 337.905 106.921C337.741 107.403 337.487 107.843 337.143 108.239C336.807 108.632 336.391 108.958 335.896 109.22C335.418 109.472 334.919 109.628 334.397 109.689C333.883 109.745 333.377 109.707 332.878 109.575C332.392 109.447 331.939 109.222 331.521 108.9C331.116 108.582 330.78 108.171 330.514 107.667ZM332.746 103.284C332.233 103.554 331.823 103.912 331.515 104.357C331.221 104.807 331.05 105.287 331.003 105.798C330.965 106.304 331.067 106.787 331.31 107.247C331.553 107.707 331.898 108.062 332.347 108.311C332.795 108.561 333.292 108.689 333.838 108.695C334.393 108.696 334.922 108.563 335.426 108.297C335.939 108.027 336.347 107.664 336.65 107.21C336.953 106.756 337.128 106.274 337.175 105.763C337.222 105.252 337.124 104.766 336.882 104.307C336.639 103.847 336.289 103.494 335.832 103.249C335.379 103.013 334.88 102.892 334.334 102.886C333.797 102.876 333.268 103.008 332.746 103.284Z" fill="#CFB270"/>
<path d="M346.174 114.105L346.589 115.037L338.202 118.77C337.846 118.929 337.642 119.097 337.589 119.273C337.536 119.45 337.55 119.63 337.632 119.812C337.705 119.977 337.796 120.133 337.906 120.281C338.016 120.43 338.116 120.555 338.205 120.657L337.524 121.157C337.374 121.016 337.219 120.828 337.06 120.593C336.904 120.366 336.786 120.162 336.704 119.979C336.517 119.559 336.49 119.166 336.623 118.8C336.76 118.444 337.043 118.17 337.472 117.979L346.174 114.105Z" fill="#CFB270"/>
<path d="M339.655 127.081C339.46 126.556 339.378 126.032 339.408 125.509C339.447 124.982 339.58 124.491 339.805 124.034C340.039 123.573 340.351 123.164 340.741 122.806C341.135 122.458 341.594 122.186 342.119 121.991C342.803 121.737 343.489 121.659 344.176 121.756C344.866 121.863 345.482 122.13 346.025 122.558C346.577 122.983 346.983 123.547 347.244 124.25C347.512 124.972 347.572 125.664 347.423 126.327C347.278 127 346.977 127.597 346.52 128.118C346.072 128.636 345.51 129.021 344.835 129.271C344.76 129.299 344.685 129.327 344.61 129.355C344.545 129.379 344.491 129.393 344.45 129.398L342.124 123.126C341.616 123.367 341.201 123.686 340.879 124.083C340.57 124.486 340.366 124.929 340.269 125.414C340.184 125.904 340.228 126.383 340.402 126.852C340.58 127.33 340.868 127.735 341.269 128.066C341.672 128.407 342.102 128.589 342.559 128.612L342.642 129.525C342.239 129.504 341.84 129.39 341.444 129.185C341.048 128.98 340.692 128.696 340.376 128.334C340.073 127.977 339.833 127.559 339.655 127.081ZM342.802 122.842L344.811 128.256C345.331 128.021 345.746 127.701 346.055 127.299C346.368 126.905 346.562 126.465 346.638 125.979C346.726 125.498 346.682 125.019 346.504 124.54C346.327 124.062 346.048 123.67 345.667 123.363C345.296 123.053 344.858 122.847 344.351 122.747C343.858 122.653 343.341 122.685 342.802 122.842Z" fill="#CFB270"/>
<path d="M344.272 139.969L350.968 134.845L351.25 135.871L345.407 140.248L352.67 141.035L352.937 142.004L344.562 141.025L344.272 139.969Z" fill="#CFB270"/>
<path d="M349.134 149.167C349.615 149.075 350.054 149.134 350.45 149.343C350.856 149.551 351.199 149.878 351.477 150.323C351.767 150.777 351.973 151.323 352.095 151.962C352.166 152.335 352.211 152.729 352.229 153.142C352.247 153.556 352.227 153.932 352.169 154.269L352.817 154.145C353.465 154.021 353.944 153.731 354.254 153.275C354.564 152.819 354.655 152.252 354.526 151.574C354.447 151.162 354.291 150.769 354.057 150.396C353.834 150.032 353.535 149.661 353.157 149.285L353.792 148.767C354.231 149.203 354.58 149.645 354.839 150.094C355.107 150.542 355.29 151.016 355.385 151.517C355.565 152.46 355.437 153.258 355.002 153.912C354.567 154.565 353.872 154.982 352.92 155.164L349.369 155.841C349.231 155.867 349.134 155.917 349.076 155.989C349.028 156.059 349.012 156.159 349.026 156.288L348.231 156.44C348.2 156.334 348.173 156.242 348.148 156.166C348.123 156.089 348.112 156.03 348.114 155.989C348.077 155.741 348.12 155.54 348.243 155.384C348.366 155.228 348.51 155.129 348.675 155.088L349.232 154.966C348.725 154.707 348.296 154.325 347.945 153.822C347.604 153.317 347.38 152.78 347.271 152.21C347.177 151.719 347.195 151.252 347.325 150.81C347.466 150.376 347.692 150.012 348.002 149.719C348.325 149.433 348.702 149.249 349.134 149.167ZM349.525 154.422C349.684 154.503 349.832 154.562 349.971 154.596C350.11 154.631 350.229 154.639 350.327 154.62L351.447 154.406C351.511 154.048 351.542 153.681 351.542 153.304C351.543 152.937 351.509 152.572 351.44 152.209C351.303 151.492 351.05 150.939 350.681 150.552C350.312 150.164 349.882 150.017 349.39 150.111C349.106 150.165 348.849 150.29 348.622 150.486C348.405 150.68 348.24 150.936 348.127 151.253C348.024 151.567 348.009 151.916 348.082 152.299C348.174 152.781 348.353 153.21 348.618 153.587C348.885 153.974 349.188 154.252 349.525 154.422Z" fill="#CFB270"/>
<path d="M360.528 177.364L360.294 173.576L350.593 174.176L350.528 173.128L360.23 172.528L359.995 168.74L360.924 168.683L361.457 177.306L360.528 177.364Z" fill="#CFB270"/>
</svg>
