<svg width="36" height="36" viewBox="0 0 36 36" fill="none" xmlns="http://www.w3.org/2000/svg">
<path d="M10.8267 16.3867C12.7467 20.16 15.84 23.24 19.6133 25.1733L22.5467 22.24C22.9067 21.88 23.44 21.76 23.9067 21.92C25.4 22.4133 27.0133 22.68 28.6667 22.68C29.4 22.68 30 23.28 30 24.0133V28.6667C30 29.4 29.4 30 28.6667 30C16.1467 30 6 19.8533 6 7.33333C6 6.6 6.6 6 7.33333 6H12C12.7333 6 13.3333 6.6 13.3333 7.33333C13.3333 9 13.6 10.6 14.0933 12.0933C14.24 12.56 14.1333 13.08 13.76 13.4533L10.8267 16.3867Z" fill="#CFB270"/>
</svg>
