<svg width="32" height="32" viewBox="0 0 32 32" fill="none" xmlns="http://www.w3.org/2000/svg">
<g clip-path="url(#clip0_602_568)">
<path fill-rule="evenodd" clip-rule="evenodd" d="M32 16C32 24.8366 24.8366 32 16 32C7.16344 32 0 24.8366 0 16C0 7.16344 7.16344 0 16 0C24.8366 0 32 7.16344 32 16ZM16.5601 11.8037C15.0014 12.4565 11.8973 13.8021 7.23456 15.827C6.48851 16.1334 6.08885 16.4265 6.04888 16.7196C5.98988 17.2152 6.6102 17.4077 7.44701 17.6674C7.55499 17.7009 7.66657 17.7355 7.78077 17.7721C8.60675 18.0385 9.69917 18.3449 10.272 18.3583C10.7916 18.3716 11.3644 18.1584 12.0039 17.7188C16.3603 14.7746 18.5984 13.2825 18.745 13.2558C18.8515 13.2292 18.9848 13.2026 19.078 13.2825C19.1713 13.3624 19.1713 13.5223 19.158 13.5623C19.0944 13.8271 16.4955 16.2398 15.3128 17.3377C15.0081 17.6206 14.7974 17.8162 14.7483 17.8653C14.6234 17.994 14.4961 18.1157 14.3738 18.2328C13.6091 18.9648 13.0352 19.5141 14.4019 20.4099C15.0232 20.8201 15.5244 21.162 16.0179 21.4987C16.6143 21.9056 17.1995 22.3049 17.9723 22.8079C18.1543 22.9274 18.3286 23.0514 18.4987 23.1724C19.1623 23.6445 19.7611 24.0705 20.5035 24.0069C20.9298 23.9669 21.3694 23.5672 21.5959 22.3682C22.1288 19.5439 23.1679 13.4024 23.4077 10.8712C23.4344 10.658 23.4077 10.3782 23.3811 10.245C23.3545 10.1118 23.3145 9.93861 23.1546 9.80539C22.9548 9.64552 22.6617 9.61887 22.5285 9.61887C21.929 9.6322 20.9964 9.95193 16.5601 11.8037Z" fill="#CFB26F"/>
</g>
<defs>
<clipPath id="clip0_602_568">
<rect width="32" height="32" fill="white"/>
</clipPath>
</defs>
</svg>
