<svg width="32" height="32" viewBox="0 0 32 32" fill="none" xmlns="http://www.w3.org/2000/svg">
<mask id="mask0_602_572" style="mask-type:luminance" maskUnits="userSpaceOnUse" x="0" y="0" width="32" height="32">
<path d="M31.6832 0H0V32H31.6832V0Z" fill="white"/>
</mask>
<g mask="url(#mask0_602_572)">
<path fill-rule="evenodd" clip-rule="evenodd" d="M2.22715 2.24942C0 4.49885 0 8.11923 0 15.36V16.64C0 23.8808 0 27.5012 2.22715 29.7506C4.4543 32 8.03884 32 15.2079 32H16.4752C23.6443 32 27.2289 32 29.456 29.7506C31.6832 27.5012 31.6832 23.8808 31.6832 16.64V15.36C31.6832 8.11923 31.6832 4.49885 29.456 2.24942C27.2289 0 23.6443 0 16.4752 0H15.2079C8.03884 0 4.4543 0 2.22715 2.24942ZM5.3466 9.73341C5.51819 18.0534 9.63697 23.0534 16.8581 23.0534H17.2674V18.2934C19.9209 18.56 21.9274 20.5201 22.7326 23.0534H26.4819C25.4522 19.2667 22.7458 17.1734 21.056 16.3734C22.7458 15.3867 25.1221 12.9867 25.6897 9.73341H22.2837C21.5444 12.3734 19.3532 14.7734 17.2674 15V9.73341H13.8614V18.96C11.7492 18.4267 9.08255 15.8401 8.96374 9.73341H5.3466Z" fill="#CFB26F"/>
</g>
</svg>
